<svg xmlns="http://www.w3.org/2000/svg" width="381.667" height="88.251" viewBox="0 0 381.667 88.251"><g transform="translate(0 0.04)"><g transform="translate(0 -0.04)"><rect width="10.202" height="10.202" transform="translate(0 0.946)" fill="#f9ad48"/><path d="M32.889,5.09H15.407V20.377H3.26V34.219H17.1V22.582H32.889Z" transform="translate(0.13 0.245)" fill="#f9ad48"/><path d="M171.723,30.54s-14.414.718-18.563,10.025c0,0,.9-9.12-12.584-10.025H110.417s-9.412,2.2-13.052,7.207l2.382-7.207H52.46v6.385H41.021a26.966,26.966,0,0,0-4.753,7.613h57.2l-1.258,4.545H34.791l-12,32.468H41.062l6.489-18.719H86.883L79.957,81.55h18.2L104,62.831l23.68.364-6.739,18.563h69.574s15.683-6.021,13.3-20.071c0,0-.718-2.382-8.32-5.553L170.912,45.318,231,45.141l-13.52,36.586H235.5l13.124-36.95h20.945l5.3-14.237Zm-38.562,18.6H110.49c.25-2.558,5.2-4.357,5.2-4.357h14.747C133.889,45.11,133.161,49.145,133.161,49.145Zm47.724,17.679H143.9l6.24-16.223s-.177,3.817,5.657,5.553Z" transform="translate(-16.769 -12.299)" fill="#ffffff"/><path d="M2.631,75.94,0,85.175,381.667,77.6Z" transform="translate(0 3.076)" fill="#ffffff"/><path d="M247.222,82.428l4.9-12h4l4.5,12h24l4.825-13.52,13.592.25-3.889,13.228H321.9l11.44-12.147,1.986,12.147h12.833l-3.39-18.023,16.005-18.927L389.967,13,337.012,58.5l-3.026-10.816H321.444l4.4,15.828-12.261,12.48s6.812-19.687,7.207-20.654a6.094,6.094,0,0,0-6.739-7.7H290.869a16.005,16.005,0,0,0-7.207,5.3,6.666,6.666,0,0,0-5.907-5.3H247.4L234.68,82.428Zm48.015-25.022c1.227-.25,10.566,0,10.566,0s.978-.218.978.978a16.941,16.941,0,0,1-.468,3.12H291.888s2.122-3.837,3.349-4.087ZM276.892,67.5,274.23,77.2l-4.253-6.313a14.133,14.133,0,0,0,6.916-3.38ZM256.738,57.3h13.228s.322,2.267-2.953,3.276H255.365Z" transform="translate(-8.301 -13)" fill="#ffffff"/></g></g></svg>