<svg xmlns="http://www.w3.org/2000/svg" viewBox="0 0 105.88 28.08"><defs><style>.cls-1{fill:#f9ad48;}.cls-2{fill:#fff;}</style></defs><title>Asset 2</title><g id="Layer_2" data-name="Layer 2"><g id="Layer_1-2" data-name="Layer 1"><g id="_Group_" data-name="&lt;Group&gt;"><g id="_Group_2" data-name="&lt;Group&gt;"><rect id="_Rectangle_" data-name="&lt;Rectangle&gt;" class="cls-1" y="0.25" width="2.83" height="2.83"/><polygon id="_Path_" data-name="&lt;Path&gt;" class="cls-1" points="9.16 1.47 4.31 1.47 4.31 5.71 0.94 5.71 0.94 9.55 4.78 9.55 4.78 6.32 9.16 6.32 9.16 1.47"/><path id="_Compound_Path_" data-name="&lt;Compound Path&gt;" class="cls-2" d="M43,5.05s-4,.2-5.15,2.78c0,0,.25-2.53-3.49-2.78H26s-2.63.61-3.64,2l.66-2H9.9V6.82H6.74A7.48,7.48,0,0,0,5.41,8.94H21.27l-.35,1.26H5l-3.33,9H6.74L8.54,14,19.45,14l-1.92,5.2h5.05L24.2,14l6.57.1L28.9,19.25H48.2s4.35-1.67,3.69-5.56c0,0-.2-.66-2.32-1.54l-6.82-3,16.67-.05L55.68,19.25h5L64.32,9h5.81L71.6,5.05ZM32.29,10.21H26C26.07,9.5,27.44,9,27.44,9h4.09C32.49,9.09,32.29,10.21,32.29,10.21Zm13.24,4.9H35.27L37,10.61s-.05,1.06,1.57,1.54Z"/></g><polygon id="_Path_2" data-name="&lt;Path&gt;" class="cls-2" points="0.73 21.91 0 24.47 105.88 22.37 0.73 21.91"/><path id="_Compound_Path_2" data-name="&lt;Compound Path&gt;" class="cls-2" d="M66.28,19.25l1.36-3.33,1.11,0L70,19.25h6.66L78,15.51l3.77.07-1.08,3.67H87l3.17-3.37.55,3.37h3.56l-.94-5L97.78,9l8.1-9L91.19,12.61l-.84-3H86.87L88.09,14l-3.4,3.47s1.89-5.46,2-5.73A1.69,1.69,0,0,0,84.82,9.6H78.39a4.44,4.44,0,0,0-2,1.47A1.85,1.85,0,0,0,74.75,9.6H66.33L62.8,19.25ZM79.6,12.31c.34-.07,2.93,0,2.93,0s.27-.06.27.27a4.7,4.7,0,0,1-.13.87h-4S79.26,12.38,79.6,12.31Zm-5.09,2.8-.74,2.69-1.18-1.75A3.92,3.92,0,0,0,74.51,15.11Zm-5.59-2.83h3.67s.09.63-.82.91H68.54Z"/><path class="cls-2" d="M53.58,24.56a6.63,6.63,0,0,1,1.2.11,3.43,3.43,0,0,1,1,.34,1.84,1.84,0,0,1,.65.54,1.2,1.2,0,0,1,.21.7,1.34,1.34,0,0,1-.24.77,1.9,1.9,0,0,1-.68.59,3.53,3.53,0,0,1-1.06.36,7.11,7.11,0,0,1-1.28.11A7,7,0,0,1,52.12,28a3.43,3.43,0,0,1-1-.36,1.67,1.67,0,0,1-.63-.55,1.25,1.25,0,0,1-.19-.67,1.33,1.33,0,0,1,.4-1,2.64,2.64,0,0,1,1.17-.64A6.14,6.14,0,0,1,53.58,24.56Zm-.07.75a2.24,2.24,0,0,0-.81.14,1.27,1.27,0,0,0-.56.39.85.85,0,0,0-.19.53.75.75,0,0,0,.18.48,1.15,1.15,0,0,0,.54.34,2.39,2.39,0,0,0,.77.12,2.21,2.21,0,0,0,.79-.14,1.21,1.21,0,0,0,.55-.39.85.85,0,0,0,.19-.52.78.78,0,0,0-.17-.49,1.13,1.13,0,0,0-.51-.35A2.22,2.22,0,0,0,53.5,25.31Z"/><path class="cls-2" d="M61.11,28l.08-.52.15-1.77,0-.71v-.39h2L65,26.55l.23.28q0-.42.09-1.17t0-1h1.53l-.09.74-.18,2.06,0,.59h-2l-.3-.35L63.73,27l-.6-.67-.37-.44L62.68,27l0,1H61.11Z"/><path class="cls-2" d="M71.45,28q.1-.59.14-1,.08-.68.12-1.34t0-1.09h1.73l-.09.9-.12,1.41,0,.35h.87l1.55,0L75.6,28H71.45Z"/><path class="cls-2" d="M80,28a29.58,29.58,0,0,0,.22-3.07v-.32H82q-.07.56-.11,1.06-.06.7-.08,1.3t0,1H80Z"/><path class="cls-2" d="M86.56,28l.08-.52.15-1.77,0-.71v-.39h2l1.66,1.93.23.28q0-.42.09-1.17t0-1H92.4l-.09.74-.18,2.06,0,.59h-2l-.3-.35L89.19,27l-.6-.67-.37-.44L88.14,27l0,1H86.56Z"/><path class="cls-2" d="M96.94,28q.1-.64.14-1.07t.09-1.15q0-.72,0-.95v-.22h4.35v.08l0,.22,0,.27c0,.06,0,.12,0,.18l-1.26,0H98.87l0,.57h1.07l1.16,0c0,.21-.05.46-.07.76h-1l-1.2,0,0,.6h2.08l.6,0q0,.37-.08.76H96.94Z"/></g></g></g></svg>